<svg width="49" height="36" viewBox="0 0 49 36" fill="none" xmlns="http://www.w3.org/2000/svg">
<path d="M19.5035 11.7837L15.7315 7.95905C13.1876 10.5273 11.6111 14.0804 11.6111 18.0007C11.6111 21.9213 13.1907 25.4661 15.7315 28.0462L19.5035 24.2164C18.5471 23.2447 17.8095 22.0454 17.3793 20.7085H31.622C31.1918 22.0454 30.4542 23.2447 29.4947 24.2164L33.2698 28.0462C35.8156 25.4661 37.3867 21.9213 37.3867 18.0007C37.3867 14.0804 35.8156 10.5273 33.2698 7.95905L29.4947 11.7837C30.4542 12.7551 31.1918 13.9567 31.622 15.2932H17.3793C17.8095 13.9567 18.5471 12.7551 19.5035 11.7837Z" fill="#101828"/>
<path d="M37.3477 3.82626C40.9372 7.45826 43.1538 12.4719 43.1538 18.0006C43.1538 23.5293 40.9372 28.5449 37.3477 32.167L41.122 36C45.6813 31.386 48.5 25.0204 48.5 18.0006C48.5 10.9796 45.6813 4.61522 41.122 0L37.3477 3.82626ZM11.6492 3.82626L7.87447 0C3.32185 4.61522 0.5 10.9796 0.5 18.0006C0.5 25.0204 3.32185 31.386 7.87447 36L11.6559 32.1737C8.0663 28.5449 5.84617 23.5293 5.84617 18.0006C5.84617 12.4735 8.0663 7.45826 11.6492 3.82626Z" fill="#101828"/>
</svg>
